<svg width="134" height="41" viewBox="0 0 134 41" fill="none" xmlns="http://www.w3.org/2000/svg">
<path d="M23.9647 12.95H16.1167V35H11.2747V12.95H3.42672V8.972H23.9647V12.95Z" fill="#048C8C"/>
<path d="M28.7327 24.824C29.1167 24.088 29.5727 23.512 30.1007 23.096C30.6287 22.672 31.2527 22.46 31.9727 22.46C32.5407 22.46 32.9967 22.584 33.3407 22.832L33.1487 25.052C33.1087 25.196 33.0487 25.3 32.9687 25.364C32.8967 25.42 32.7967 25.448 32.6687 25.448C32.5487 25.448 32.3687 25.428 32.1287 25.388C31.8967 25.348 31.6687 25.328 31.4447 25.328C31.1167 25.328 30.8247 25.376 30.5687 25.472C30.3127 25.568 30.0807 25.708 29.8727 25.892C29.6727 26.068 29.4927 26.284 29.3327 26.54C29.1807 26.796 29.0367 27.088 28.9007 27.416V35H25.9367V22.688H27.6767C27.9807 22.688 28.1927 22.744 28.3127 22.856C28.4327 22.96 28.5127 23.152 28.5527 23.432L28.7327 24.824ZM41.2297 29.744C40.3737 29.784 39.6537 29.86 39.0697 29.972C38.4857 30.076 38.0177 30.212 37.6657 30.38C37.3137 30.548 37.0617 30.744 36.9097 30.968C36.7577 31.192 36.6817 31.436 36.6817 31.7C36.6817 32.22 36.8337 32.592 37.1377 32.816C37.4497 33.04 37.8537 33.152 38.3497 33.152C38.9577 33.152 39.4817 33.044 39.9217 32.828C40.3697 32.604 40.8057 32.268 41.2297 31.82V29.744ZM34.4377 24.404C35.8537 23.108 37.5577 22.46 39.5497 22.46C40.2697 22.46 40.9137 22.58 41.4817 22.82C42.0497 23.052 42.5297 23.38 42.9217 23.804C43.3137 24.22 43.6097 24.72 43.8097 25.304C44.0177 25.888 44.1217 26.528 44.1217 27.224V35H42.7777C42.4977 35 42.2817 34.96 42.1297 34.88C41.9777 34.792 41.8577 34.62 41.7697 34.364L41.5057 33.476C41.1937 33.756 40.8897 34.004 40.5937 34.22C40.2977 34.428 39.9897 34.604 39.6697 34.748C39.3497 34.892 39.0057 35 38.6377 35.072C38.2777 35.152 37.8777 35.192 37.4377 35.192C36.9177 35.192 36.4377 35.124 35.9977 34.988C35.5577 34.844 35.1777 34.632 34.8577 34.352C34.5377 34.072 34.2897 33.724 34.1137 33.308C33.9377 32.892 33.8497 32.408 33.8497 31.856C33.8497 31.544 33.9017 31.236 34.0057 30.932C34.1097 30.62 34.2777 30.324 34.5097 30.044C34.7497 29.764 35.0577 29.5 35.4337 29.252C35.8097 29.004 36.2697 28.788 36.8137 28.604C37.3657 28.42 38.0057 28.272 38.7337 28.16C39.4617 28.04 40.2937 27.968 41.2297 27.944V27.224C41.2297 26.4 41.0537 25.792 40.7017 25.4C40.3497 25 39.8417 24.8 39.1777 24.8C38.6977 24.8 38.2977 24.856 37.9777 24.968C37.6657 25.08 37.3897 25.208 37.1497 25.352C36.9097 25.488 36.6897 25.612 36.4897 25.724C36.2977 25.836 36.0817 25.892 35.8417 25.892C35.6337 25.892 35.4577 25.84 35.3137 25.736C35.1697 25.624 35.0537 25.496 34.9657 25.352L34.4377 24.404ZM57.732 22.688L52.848 35H50.16L45.276 22.688H47.724C47.948 22.688 48.132 22.74 48.276 22.844C48.428 22.948 48.528 23.08 48.576 23.24L50.952 29.816C51.08 30.2 51.192 30.576 51.288 30.944C51.384 31.312 51.468 31.68 51.54 32.048C51.62 31.68 51.708 31.312 51.804 30.944C51.9 30.576 52.016 30.2 52.152 29.816L54.576 23.24C54.632 23.08 54.732 22.948 54.876 22.844C55.02 22.74 55.192 22.688 55.392 22.688H57.732ZM66.8687 27.428C66.8687 27.044 66.8127 26.684 66.7007 26.348C66.5967 26.004 66.4367 25.704 66.2207 25.448C66.0047 25.192 65.7287 24.992 65.3927 24.848C65.0647 24.696 64.6807 24.62 64.2407 24.62C63.3847 24.62 62.7087 24.864 62.2127 25.352C61.7247 25.84 61.4127 26.532 61.2767 27.428H66.8687ZM61.2167 29.216C61.2647 29.848 61.3767 30.396 61.5527 30.86C61.7287 31.316 61.9607 31.696 62.2487 32C62.5367 32.296 62.8767 32.52 63.2687 32.672C63.6687 32.816 64.1087 32.888 64.5887 32.888C65.0687 32.888 65.4807 32.832 65.8247 32.72C66.1767 32.608 66.4807 32.484 66.7367 32.348C67.0007 32.212 67.2287 32.088 67.4207 31.976C67.6207 31.864 67.8127 31.808 67.9967 31.808C68.2447 31.808 68.4287 31.9 68.5487 32.084L69.4007 33.164C69.0727 33.548 68.7047 33.872 68.2967 34.136C67.8887 34.392 67.4607 34.6 67.0127 34.76C66.5727 34.912 66.1207 35.02 65.6567 35.084C65.2007 35.148 64.7567 35.18 64.3247 35.18C63.4687 35.18 62.6727 35.04 61.9367 34.76C61.2007 34.472 60.5607 34.052 60.0167 33.5C59.4727 32.94 59.0447 32.252 58.7327 31.436C58.4207 30.612 58.2647 29.66 58.2647 28.58C58.2647 27.74 58.4007 26.952 58.6727 26.216C58.9447 25.472 59.3327 24.828 59.8367 24.284C60.3487 23.732 60.9687 23.296 61.6967 22.976C62.4327 22.656 63.2607 22.496 64.1807 22.496C64.9567 22.496 65.6727 22.62 66.3287 22.868C66.9847 23.116 67.5487 23.48 68.0207 23.96C68.4927 24.432 68.8607 25.016 69.1247 25.712C69.3967 26.4 69.5327 27.188 69.5327 28.076C69.5327 28.524 69.4847 28.828 69.3887 28.988C69.2927 29.14 69.1087 29.216 68.8367 29.216H61.2167ZM74.757 17.168V35H71.793V17.168H74.757ZM92.2946 26.3V33.32C91.4146 33.968 90.4746 34.444 89.4746 34.748C88.4826 35.044 87.4186 35.192 86.2826 35.192C84.8666 35.192 83.5826 34.972 82.4306 34.532C81.2866 34.092 80.3066 33.48 79.4906 32.696C78.6826 31.912 78.0586 30.976 77.6186 29.888C77.1786 28.8 76.9586 27.612 76.9586 26.324C76.9586 25.02 77.1706 23.824 77.5946 22.736C78.0186 21.648 78.6186 20.712 79.3946 19.928C80.1786 19.144 81.1266 18.536 82.2386 18.104C83.3506 17.672 84.5986 17.456 85.9826 17.456C86.6866 17.456 87.3426 17.512 87.9506 17.624C88.5666 17.736 89.1346 17.892 89.6546 18.092C90.1826 18.284 90.6626 18.52 91.0946 18.8C91.5266 19.08 91.9226 19.388 92.2826 19.724L91.3586 21.188C91.2146 21.42 91.0266 21.564 90.7946 21.62C90.5626 21.668 90.3106 21.608 90.0386 21.44C89.7746 21.288 89.5106 21.136 89.2466 20.984C88.9826 20.832 88.6866 20.7 88.3586 20.588C88.0386 20.476 87.6746 20.384 87.2666 20.312C86.8666 20.24 86.4026 20.204 85.8746 20.204C85.0186 20.204 84.2426 20.348 83.5466 20.636C82.8586 20.924 82.2706 21.336 81.7826 21.872C81.2946 22.408 80.9186 23.052 80.6546 23.804C80.3906 24.556 80.2586 25.396 80.2586 26.324C80.2586 27.316 80.3986 28.204 80.6786 28.988C80.9666 29.764 81.3666 30.424 81.8786 30.968C82.3986 31.504 83.0226 31.916 83.7506 32.204C84.4786 32.484 85.2906 32.624 86.1866 32.624C86.8266 32.624 87.3986 32.556 87.9026 32.42C88.4066 32.284 88.8986 32.1 89.3786 31.868V28.724H87.1946C86.9866 28.724 86.8226 28.668 86.7026 28.556C86.5906 28.436 86.5346 28.292 86.5346 28.124V26.3H92.2946ZM100.244 22.496C101.156 22.496 101.984 22.644 102.728 22.94C103.48 23.236 104.12 23.656 104.648 24.2C105.184 24.744 105.596 25.408 105.884 26.192C106.172 26.976 106.316 27.852 106.316 28.82C106.316 29.796 106.172 30.676 105.884 31.46C105.596 32.244 105.184 32.912 104.648 33.464C104.12 34.016 103.48 34.44 102.728 34.736C101.984 35.032 101.156 35.18 100.244 35.18C99.324 35.18 98.488 35.032 97.736 34.736C96.984 34.44 96.34 34.016 95.804 33.464C95.276 32.912 94.864 32.244 94.568 31.46C94.28 30.676 94.136 29.796 94.136 28.82C94.136 27.852 94.28 26.976 94.568 26.192C94.864 25.408 95.276 24.744 95.804 24.2C96.34 23.656 96.984 23.236 97.736 22.94C98.488 22.644 99.324 22.496 100.244 22.496ZM100.244 32.9C101.268 32.9 102.024 32.556 102.512 31.868C103.008 31.18 103.256 30.172 103.256 28.844C103.256 27.516 103.008 26.504 102.512 25.808C102.024 25.112 101.268 24.764 100.244 24.764C99.204 24.764 98.432 25.116 97.928 25.82C97.432 26.516 97.184 27.524 97.184 28.844C97.184 30.164 97.432 31.172 97.928 31.868C98.432 32.556 99.204 32.9 100.244 32.9Z" fill="#0F0178"/>
<g clip-path="url(#clip0)">
<path d="M117.911 38.2946L120.913 39.0513L124.918 30.1454L128.184 30.2033C128.883 30.2168 129.577 30.0502 130.217 29.7154C130.856 29.3807 131.425 28.886 131.883 28.2666C132.166 27.8855 132.325 27.4016 132.334 26.899C132.343 26.3965 132.201 25.9072 131.932 25.5163C131.496 24.8811 130.945 24.3665 130.318 24.0093C129.691 23.6521 129.003 23.4611 128.304 23.4497L125.038 23.3918L121.351 14.3495L118.324 14.9993L119.104 23.3094L115.424 23.6524L114.093 19.8199L111.083 19.7665L110.843 33.2737L113.853 33.327L115.319 29.5441L118.985 30.0174L117.911 38.2946ZM112.929 31.6217L112.321 31.6109L112.5 21.4806L113.108 21.4914L114.478 25.4338L119.349 24.9799L120.721 25.0042L119.91 16.374L120.517 16.2438L124.113 25.0643L128.274 25.1381C128.761 25.146 129.24 25.2791 129.677 25.5279C130.113 25.7767 130.497 26.1351 130.801 26.5775C130.858 26.6611 130.889 26.7658 130.887 26.8734C130.885 26.9809 130.851 27.0845 130.79 27.166C130.471 27.5974 130.075 27.9419 129.63 28.1751C129.184 28.4082 128.701 28.5243 128.214 28.5149L124.053 28.4411L120.146 37.1286L119.545 36.977L120.661 28.381L119.289 28.3566L114.437 27.7303L112.929 31.6217Z" fill="#048C8C"/>
</g>
<defs>
<clipPath id="clip0">
<rect width="27.0186" height="23.1588" fill="white" transform="translate(133.634 13.4106) rotate(91.0158)"/>
</clipPath>
</defs>
</svg>
