<svg width="78" height="81" viewBox="0 0 78 81" fill="none" xmlns="http://www.w3.org/2000/svg">
<path d="M65.9881 27.0567C69.1621 31.4045 70.8329 36.2533 70.7292 44.072C70.5467 57.8305 62.6757 70.0492 51.3867 75.982L48.6572 70.5241C59.2129 63.5858 61.3802 54.4133 62.2728 48.6231C60.5738 49.6912 58.3635 50.0402 56.2055 49.757C50.5552 49.0176 46.1717 43.1305 46.2677 35.8935C46.3161 32.2446 47.5192 28.762 49.6125 26.2119C51.7057 23.6618 54.5175 22.2532 57.4294 22.2958C59.0394 22.3371 60.6253 22.7792 62.0947 23.5965C63.564 24.4139 64.8875 25.5901 65.9881 27.0567ZM34.619 26.5973C37.793 30.9452 39.4637 35.7939 39.36 43.6127C39.1775 57.3711 31.3066 69.5898 20.0175 75.5226L17.2881 70.0647C27.8438 63.1264 30.0111 53.9539 30.9037 48.1637C29.2046 49.2318 26.9943 49.5808 24.8363 49.2976C19.186 48.5583 14.8026 42.6711 14.8986 35.4342C14.947 31.7852 16.1501 28.3026 18.2433 25.7525C20.3365 23.2025 23.1484 21.7938 26.0602 21.8365C27.6703 21.8777 29.2562 22.3198 30.7255 23.1372C32.1949 23.9545 33.5184 25.1307 34.619 26.5973Z" fill="#483E03" fill-opacity="0.15"/>
</svg>
