<svg width="38" height="38" viewBox="0 0 38 38" fill="none" xmlns="http://www.w3.org/2000/svg">
<circle cx="19" cy="19" r="19" fill="#FFD803"/>
<path d="M10.3468 25.2078C9.14517 23.9315 8.5 22.5 8.5 20.1795C8.5 16.0962 11.3665 12.4363 15.535 10.6268L16.5768 12.2345C12.686 14.3392 11.9253 17.0703 11.622 18.7923C12.2485 18.468 13.0687 18.3548 13.8725 18.4295C15.9772 18.6243 17.6362 20.3522 17.6362 22.5C17.6362 23.583 17.206 24.6216 16.4402 25.3874C15.6744 26.1531 14.6358 26.5833 13.5528 26.5833C12.9539 26.5781 12.3621 26.4538 11.8117 26.2176C11.2613 25.9815 10.7633 25.6382 10.3468 25.2078ZM22.0135 25.2078C20.8118 23.9315 20.1667 22.5 20.1667 20.1795C20.1667 16.0962 23.0332 12.4363 27.2017 10.6268L28.2435 12.2345C24.3527 14.3392 23.592 17.0703 23.2887 18.7923C23.9152 18.468 24.7353 18.3548 25.5392 18.4295C27.6438 18.6243 29.3028 20.3522 29.3028 22.5C29.3028 23.583 28.8726 24.6216 28.1069 25.3874C27.3411 26.1531 26.3025 26.5833 25.2195 26.5833C24.6206 26.5781 24.0287 26.4538 23.4783 26.2176C22.9279 25.9815 22.43 25.6382 22.0135 25.2078Z" fill="black"/>
</svg>
